<?xml version="1.0" standalone="no"?>
<!DOCTYPE svg PUBLIC "-//W3C//DTD SVG 20010904//EN"
 "http://www.w3.org/TR/2001/REC-SVG-20010904/DTD/svg10.dtd">
<svg version="1.0" xmlns="http://www.w3.org/2000/svg"
 width="1600.000000pt" height="1200.000000pt" viewBox="0 0 1600.000000 1200.000000"
 preserveAspectRatio="xMidYMid meet">

<g transform="translate(0.000000,1200.000000) scale(0.100000,-0.100000)"
fill="#000000" stroke="none">
<path d="M3749 9113 c-59 -36 -81 -132 -45 -188 71 -108 232 -71 253 58 7 45
-21 103 -61 128 -38 23 -111 24 -147 2z"/>
<path d="M9434 8486 c-3 -15 4 -42 21 -76 l27 -53 -26 -57 c-31 -68 -32 -86
-8 -98 20 -11 30 -9 95 20 l47 21 48 -22 c55 -26 105 -25 110 1 2 10 -9 44
-23 76 l-27 59 27 53 c34 68 29 100 -18 100 -17 0 -47 -9 -65 -20 -18 -11 -41
-20 -52 -20 -11 0 -34 9 -52 20 -18 11 -48 20 -65 20 -26 0 -34 -5 -39 -24z"/>
<path d="M3085 8345 c-54 -53 -15 -149 59 -149 81 0 122 99 62 150 -37 32 -89
32 -121 -1z"/>
<path d="M4124 8120 c-105 -21 -189 -88 -235 -185 l-29 -60 0 -490 0 -490 26
-55 c31 -68 83 -123 149 -158 l50 -27 490 -3 490 -3 175 -174 c185 -183 229
-214 305 -215 56 0 124 37 158 85 31 46 46 124 47 241 l0 71 49 23 c65 30 124
91 156 161 l26 57 -3 498 c-3 499 -3 499 -26 546 -31 63 -96 126 -162 157
l-55 26 -785 2 c-432 0 -803 -3 -826 -7z m1634 -116 c61 -30 98 -74 118 -140
19 -62 21 -879 2 -952 -17 -68 -95 -145 -165 -161 l-51 -13 -6 -116 c-10 -181
-14 -202 -46 -234 -32 -32 -74 -37 -118 -14 -15 8 -106 94 -202 190 l-175 176
-473 0 c-328 0 -487 4 -520 12 -60 15 -145 96 -161 153 -17 62 -14 919 3 968
21 58 61 103 118 131 l52 26 786 0 786 0 52 -26z"/>
<path d="M4448 7524 c-15 -8 -32 -23 -38 -34 -13 -24 -13 -76 0 -101 17 -30
68 -52 106 -45 89 17 100 142 17 185 -29 15 -52 13 -85 -5z"/>
<path d="M4885 7531 c-37 -16 -60 -51 -60 -93 0 -33 6 -45 33 -69 20 -18 43
-29 62 -29 19 0 42 11 62 29 27 24 33 36 33 70 0 67 -71 117 -130 92z"/>
<path d="M5305 7528 c-58 -32 -73 -106 -31 -155 20 -23 32 -28 71 -28 39 0 51
5 71 28 26 30 32 83 14 118 -12 22 -61 49 -87 49 -10 0 -27 -6 -38 -12z"/>
<path d="M7485 7924 c-401 -70 -742 -320 -926 -678 -103 -199 -141 -355 -144
-588 -2 -156 -2 -156 -30 -190 -52 -61 -88 -154 -93 -239 -10 -180 84 -332
256 -410 34 -16 62 -35 62 -42 1 -6 29 -55 64 -107 l63 -95 -381 -5 c-370 -5
-382 -6 -430 -28 -80 -37 -132 -85 -168 -160 l-33 -67 0 -946 0 -947 -150 -4
c-140 -3 -153 -5 -201 -30 -66 -34 -128 -106 -150 -170 -24 -73 -22 -157 5
-201 21 -34 21 -37 5 -68 -9 -18 -19 -53 -23 -78 l-6 -46 -410 -3 -409 -2 36
37 c20 21 48 61 62 89 25 49 27 51 75 57 108 13 226 101 273 204 32 69 32 218
1 285 -40 87 -130 167 -215 193 l-41 12 -1 71 c-1 76 -15 105 -70 146 -27 20
-41 21 -459 24 -238 2 -447 0 -465 -3 -42 -8 -98 -57 -112 -99 -8 -26 -5 -115
15 -387 14 -195 30 -375 35 -402 13 -62 52 -138 97 -187 l35 -40 -264 0 c-254
0 -265 -1 -308 -22 -67 -35 -90 -86 -90 -204 0 -51 4 -104 10 -118 l10 -26
-184 0 c-164 0 -185 -2 -199 -18 -22 -24 -21 -55 1 -75 17 -16 343 -17 4480
-17 3723 0 4462 -2 4462 -13 0 -8 13 -40 30 -73 54 -108 165 -221 269 -274
124 -63 204 -73 429 -56 161 13 176 15 220 43 69 42 106 107 106 186 -1 66
-14 102 -60 156 l-26 31 410 0 c383 0 410 1 425 18 22 24 21 55 -1 75 -16 15
-45 17 -200 17 l-182 0 10 26 c6 14 10 69 10 122 0 115 -21 163 -85 199 -35
20 -55 23 -150 23 l-110 0 -1 35 c-1 45 -25 70 -88 91 -56 19 -176 125 -176
156 0 10 27 44 60 78 48 47 72 63 115 76 30 8 62 23 71 31 67 68 12 173 -92
173 -22 0 -43 2 -46 5 -2 3 0 35 5 72 21 143 -23 344 -106 493 -51 90 -204
248 -289 299 -268 157 -587 160 -858 8 -49 -28 -107 -74 -169 -135 -51 -51
-95 -91 -96 -90 -1 2 -23 44 -50 93 -45 84 -117 191 -140 207 -5 4 -24 8 -42
8 -39 0 -65 -30 -83 -95 l-13 -45 -51 0 -52 0 -57 70 c-50 62 -61 70 -91 70
-40 0 -70 -31 -82 -83 -3 -18 -41 -100 -84 -182 -97 -190 -130 -285 -137 -395
-6 -94 5 -165 41 -252 l23 -57 -63 -30 c-78 -37 -147 -105 -182 -179 -22 -46
-26 -72 -27 -137 0 -68 4 -89 29 -139 16 -33 49 -79 72 -103 l43 -43 -323 0
-323 0 -21 152 c-12 84 -22 160 -22 168 0 11 23 23 73 38 88 25 163 86 205
166 l27 51 0 970 0 970 -30 53 c-42 77 -110 134 -189 160 -63 21 -84 22 -421
22 -195 0 -355 2 -355 5 0 19 84 134 104 143 13 6 30 26 37 45 10 27 24 40 63
59 74 34 160 123 199 205 30 64 32 75 32 178 0 124 -14 167 -82 256 l-36 48
-3 163 c-5 273 -31 409 -95 497 -27 39 -29 46 -29 141 0 94 -2 103 -25 126
-13 13 -38 27 -55 30 l-30 7 0 109 c0 102 -1 110 -25 133 -24 25 -38 28 -106
25 -34 -1 -37 1 -43 35 -11 56 -53 78 -138 71 -37 -3 -87 -13 -111 -24 -43
-19 -44 -19 -80 0 -65 33 -239 86 -336 102 -115 19 -316 19 -426 0z m446 -104
c109 -22 215 -58 300 -101 l56 -28 58 30 c34 17 74 29 96 29 34 0 39 -3 39
-24 0 -19 -12 -29 -64 -55 l-63 -31 -84 39 c-101 47 -228 86 -333 100 -158 22
-364 8 -506 -35 l-55 -17 89 -18 c420 -88 780 -281 877 -471 82 -161 56 -347
-68 -479 -46 -49 -219 -166 -230 -156 -3 4 2 24 11 47 9 22 16 43 16 45 0 16
-48 -4 -164 -70 -183 -104 -193 -106 -136 -27 17 23 28 42 25 42 -3 0 -69 -31
-147 -69 -260 -127 -466 -182 -683 -185 -72 -1 -136 -6 -143 -10 -7 -4 -12
-25 -12 -47 0 -104 -31 -295 -57 -348 -18 -38 -28 -49 -34 -40 -10 17 -11 12
-9 -71 1 -41 -2 -61 -8 -55 -5 6 -27 87 -47 180 -21 94 -48 193 -60 220 -88
198 -109 501 -52 725 90 347 326 637 640 785 181 86 303 113 510 114 103 1
165 -4 238 -19z m473 -1387 c25 -28 42 -37 77 -42 42 -6 44 -8 42 -36 -1 -16
-8 -189 -14 -383 -10 -273 -10 -358 -1 -373 7 -10 12 -21 12 -24 0 -3 -359 -5
-797 -5 l-798 0 0 57 c0 32 -4 160 -9 285 l-8 226 90 1 c161 2 339 43 552 128
102 40 118 44 145 34 54 -19 85 -12 176 40 l89 50 26 -20 c41 -32 80 -26 235
39 79 32 146 59 148 60 2 0 18 -16 35 -37z m-1954 -80 c0 -10 16 -63 35 -118
19 -55 42 -134 49 -175 8 -41 18 -90 22 -109 l7 -34 -32 19 c-127 74 -179 251
-117 398 16 38 36 48 36 19z m2547 -72 c30 -104 -5 -226 -86 -305 -22 -22 -43
-37 -47 -34 -7 7 36 220 69 346 19 73 23 81 35 65 7 -10 20 -42 29 -72z m438
-830 c52 -24 88 -58 117 -112 l23 -44 0 -930 0 -930 -22 -40 c-28 -52 -68 -89
-123 -114 -44 -20 -63 -21 -647 -21 l-601 0 -7 43 c-3 23 -8 54 -11 70 -5 24
-3 27 23 27 146 0 919 23 958 29 57 8 -153 17 -677 28 -175 3 -318 9 -318 12
0 30 -92 685 -100 713 -14 48 -53 94 -101 118 -34 18 -59 20 -256 20 -207 0
-220 -1 -258 -23 -21 -12 -52 -40 -67 -62 -26 -38 -31 -60 -73 -385 -25 -190
-48 -354 -50 -366 -4 -20 -11 -21 -327 -27 -513 -11 -737 -20 -698 -28 19 -4
253 -13 520 -19 267 -6 486 -13 488 -15 2 -1 0 -32 -4 -69 l-7 -66 -597 0
c-669 0 -666 0 -732 67 -72 74 -68 10 -68 1038 0 1021 -3 964 63 1034 18 18
50 42 72 52 38 18 105 19 1740 19 1630 0 1702 -1 1740 -19z m2074 -1134 c-52
-18 -122 -48 -154 -67 -81 -48 -185 -148 -235 -225 -38 -58 -72 -86 -87 -71
-13 13 68 123 142 195 92 88 202 151 317 181 114 30 123 22 17 -13z m-1060
-50 c10 -20 4 -36 -56 -147 -89 -165 -133 -292 -133 -385 0 -75 16 -150 44
-203 l17 -32 744 0 c838 1 770 7 848 -80 55 -61 77 -122 77 -209 -1 -93 -24
-138 -135 -252 -143 -147 -193 -267 -182 -439 16 -251 189 -452 428 -495 l74
-13 -56 -1 c-204 -3 -416 174 -474 394 -19 76 -19 214 0 290 25 92 63 152 171
266 76 80 105 118 118 154 35 104 13 213 -60 294 -26 29 -59 58 -75 66 -24 13
-141 15 -779 15 l-751 0 -24 53 c-14 29 -30 87 -36 128 -17 110 7 197 123 431
51 103 96 188 99 188 3 0 11 -10 18 -23z m347 -30 c-8 -33 -32 -57 -56 -57
-18 0 -18 4 8 55 23 46 29 52 41 40 8 -8 11 -23 7 -38z m-2897 -20 c54 -28 57
-38 120 -507 33 -245 73 -539 89 -655 16 -115 27 -213 25 -217 -2 -5 -200 -8
-439 -8 l-434 0 0 23 c0 13 38 311 85 662 90 677 90 673 146 702 16 9 81 13
204 13 123 0 188 -4 204 -13z m-3428 -397 c6 -9 8 -53 4 -115 l-6 -100 49 -1
c135 -4 243 -116 243 -252 1 -79 -24 -133 -83 -187 -59 -53 -103 -68 -186 -63
-53 3 -62 1 -62 -14 0 -10 -9 -42 -21 -72 -25 -67 -85 -132 -154 -166 -48 -24
-58 -25 -235 -25 -181 0 -186 1 -235 26 -68 36 -123 92 -151 154 -22 47 -27
87 -50 412 -15 198 -24 372 -20 386 3 15 16 29 31 34 14 4 214 6 445 3 359 -4
422 -7 431 -20z m7314 -458 c6 -4 18 -19 28 -34 l17 -28 -412 0 c-468 0 -462
0 -531 -80 -82 -96 -53 -225 64 -284 l53 -26 313 0 c172 0 313 -3 313 -7 0 -5
-8 -18 -18 -31 l-17 -23 -695 3 c-514 3 -704 7 -731 16 -53 18 -119 80 -145
136 -53 114 -10 247 102 316 76 48 91 49 894 49 415 0 760 -3 765 -7z m789 0
c3 -5 -17 -14 -44 -21 -27 -7 -60 -21 -72 -30 -18 -14 -37 -17 -95 -13 -62 4
-72 7 -77 26 -13 46 -14 46 138 46 80 0 147 -4 150 -8z m-6777 -80 c22 -26 64
-60 94 -76 65 -36 69 -40 69 -93 0 -73 -2 -73 -332 -73 -275 0 -289 1 -308 20
-60 60 22 221 129 254 29 9 94 15 177 15 l131 1 40 -48z m5971 -49 l82 -6 0
-34 c0 -64 -11 -73 -98 -73 -53 0 -72 -3 -62 -10 8 -5 40 -10 70 -10 l55 0
-63 -62 -62 -63 -338 0 c-301 0 -340 2 -369 17 -77 43 -98 130 -45 188 49 56
75 59 427 60 176 0 357 -3 403 -7z m612 3 c0 -2 -9 -24 -20 -50 -17 -38 -26
-46 -47 -46 -24 0 -25 2 -19 38 3 20 6 43 6 50 0 7 15 12 40 12 22 0 40 -2 40
-4z m-5793 -88 c-2 -7 -10 -40 -17 -73 -7 -33 -16 -63 -19 -67 -3 -4 -80 -8
-170 -9 -164 -3 -165 -3 -183 22 -16 21 -17 31 -7 82 l12 57 194 0 c152 0 194
-3 190 -12z m2663 1 c0 -14 39 -278 45 -306 5 -20 1 -23 -25 -23 -28 0 -30 2
-30 40 0 53 -23 96 -63 120 -27 17 -51 20 -158 20 l-127 0 -6 48 c-4 26 -10
62 -13 80 l-5 32 191 0 c130 0 191 -3 191 -11z m3106 -119 c8 -25 14 -48 14
-52 0 -9 -104 -11 -112 -3 -2 3 2 28 11 55 14 47 17 51 45 48 25 -3 31 -9 42
-48z m-6251 -47 c42 -57 49 -73 50 -115 l0 -48 -47 0 -46 0 -7 43 c-4 23 -16
59 -26 79 -19 37 -19 37 2 73 12 19 22 35 23 35 1 0 24 -30 51 -67z m-517 -71
c4 -44 42 -64 72 -37 11 10 20 31 20 46 l0 27 117 -3 c112 -4 119 -5 136 -29
10 -14 21 -41 24 -61 l6 -35 -332 0 c-367 0 -346 -5 -316 67 27 64 27 64 154
61 l116 -3 3 -33z m6848 -3 c3 -6 30 -22 58 -35 l51 -24 -178 0 -178 0 16 30
c15 29 17 29 108 33 50 1 97 4 104 5 6 1 15 -3 19 -9z m-5410 -46 l2 -43 -377
0 c-280 0 -380 3 -389 12 -18 18 -15 55 6 67 11 7 148 10 386 8 l370 -2 2 -42z
m2105 28 c21 -16 22 -22 11 -45 l-12 -26 -382 0 -383 0 2 42 c1 24 2 44 2 46
1 1 167 2 370 2 346 0 370 -1 392 -19z m-1969 -31 c-5 -33 -4 -32 -26 -24 -16
6 -22 35 -9 47 3 4 14 7 23 7 13 0 16 -7 12 -30z m1103 0 c0 -36 -29 -33 -33
3 -3 23 0 28 15 25 12 -2 18 -12 18 -28z m3203 -137 c79 -6 83 -7 77 -27 -4
-12 -9 -69 -12 -128 l-5 -108 -4193 0 -4192 0 -27 21 c-25 19 -26 25 -26 113
0 96 7 113 50 129 21 8 8228 8 8328 0z m1427 -23 c17 -18 19 -31 17 -108 -2
-79 -5 -89 -28 -109 l-25 -23 -434 0 -434 0 -7 22 c-11 36 -8 122 6 148 7 14
29 42 49 64 l36 38 400 -6 c382 -6 400 -7 420 -26z"/>
<path d="M7280 7685 c-14 -8 -20 -14 -15 -14 6 0 21 6 35 14 14 8 21 14 15 14
-5 0 -21 -6 -35 -14z"/>
<path d="M7204 7644 c-18 -14 -18 -15 4 -4 12 6 22 13 22 15 0 8 -5 6 -26 -11z"/>
<path d="M7154 7614 c-18 -14 -18 -15 4 -4 12 6 22 13 22 15 0 8 -5 6 -26 -11z"/>
<path d="M7060 7549 l-35 -30 38 26 c33 24 43 35 34 35 -1 0 -18 -14 -37 -31z"/>
<path d="M7011 7483 c-10 -26 -10 -27 4 -9 8 11 15 23 15 28 0 15 -7 8 -19
-19z"/>
<path d="M6936 7376 c-19 -24 -69 -69 -109 -99 -57 -43 -80 -69 -106 -117 -18
-34 -31 -63 -29 -65 2 -2 18 25 37 61 18 36 47 74 65 86 61 42 126 100 157
139 17 21 29 39 26 39 -3 0 -21 -20 -41 -44z"/>
<path d="M6666 7040 c-22 -56 -19 -65 5 -11 11 24 18 46 15 48 -2 2 -11 -14
-20 -37z"/>
<path d="M6636 6954 c-4 -14 -5 -28 -3 -31 3 -2 8 8 11 23 4 14 5 28 3 31 -3
2 -8 -8 -11 -23z"/>
<path d="M6621 6894 c0 -11 3 -14 6 -6 3 7 2 16 -1 19 -3 4 -6 -2 -5 -13z"/>
<path d="M6612 6850 c0 -14 2 -19 5 -12 2 6 2 18 0 25 -3 6 -5 1 -5 -13z"/>
<path d="M6602 6795 c0 -16 2 -22 5 -12 2 9 2 23 0 30 -3 6 -5 -1 -5 -18z"/>
<path d="M6593 6715 c0 -27 2 -38 4 -22 2 15 2 37 0 50 -2 12 -4 0 -4 -28z"/>
<path d="M6593 6495 c0 -27 2 -38 4 -22 2 15 2 37 0 50 -2 12 -4 0 -4 -28z"/>
<path d="M6602 6415 c0 -16 2 -22 5 -12 2 9 2 23 0 30 -3 6 -5 -1 -5 -18z"/>
<path d="M6612 6360 c0 -14 2 -19 5 -12 2 6 2 18 0 25 -3 6 -5 1 -5 -13z"/>
<path d="M6621 6314 c0 -11 3 -14 6 -6 3 7 2 16 -1 19 -3 4 -6 -2 -5 -13z"/>
<path d="M6631 6284 c-1 -15 30 -106 35 -101 2 2 -5 28 -15 58 -11 30 -20 49
-20 43z"/>
<path d="M6670 6165 c0 -5 5 -17 10 -25 5 -8 10 -10 10 -5 0 6 -5 17 -10 25
-5 8 -10 11 -10 5z"/>
<path d="M6702 6070 c0 -14 2 -19 5 -12 2 6 2 18 0 25 -3 6 -5 1 -5 -13z"/>
<path d="M6712 6020 c0 -14 2 -19 5 -12 2 6 2 18 0 25 -3 6 -5 1 -5 -13z"/>
<path d="M6721 5974 c0 -11 3 -14 6 -6 3 7 2 16 -1 19 -3 4 -6 -2 -5 -13z"/>
<path d="M7266 6063 c-13 -13 -5 -45 12 -49 15 -5 17 -21 17 -160 0 -152 1
-156 24 -175 30 -25 66 -24 91 1 18 18 20 33 20 175 l0 155 25 0 c28 0 44 25
27 42 -12 12 -205 21 -216 11z"/>
<path d="M7898 6053 c-15 -18 -2 -43 22 -43 19 0 20 -6 20 -153 0 -169 4 -183
57 -193 26 -5 37 -1 57 19 26 26 26 28 26 177 0 121 3 150 14 150 21 0 41 29
29 41 -16 16 -212 17 -225 2z"/>
<path d="M8667 4993 c-13 -21 -63 -109 -111 -195 -62 -111 -86 -163 -81 -177
6 -20 57 -41 98 -41 9 0 17 -4 17 -10 0 -5 -38 -72 -85 -149 -47 -76 -85 -145
-85 -153 0 -21 21 -38 47 -38 27 0 449 342 459 372 7 23 -21 58 -47 58 -54 0
-49 11 44 116 50 58 100 117 110 133 17 27 17 29 0 49 -14 15 -52 26 -159 46
-78 14 -151 26 -163 26 -13 0 -29 -13 -44 -37z m158 -27 c44 -8 98 -18 120
-21 22 -4 43 -9 47 -11 4 -3 -45 -64 -110 -135 -64 -72 -117 -138 -117 -147 0
-13 14 -19 58 -26 32 -4 57 -12 55 -16 -4 -11 -389 -322 -393 -318 -2 2 37 70
86 151 49 81 89 152 89 156 0 10 -23 16 -93 26 -28 5 -47 12 -45 19 2 6 46 86
98 178 67 117 99 166 110 163 8 -2 51 -10 95 -19z"/>
<path d="M7680 4964 c-124 -54 -161 -213 -72 -307 53 -56 130 -79 200 -61 23
7 22 7 -14 37 -20 17 -45 49 -55 71 -37 81 -14 175 55 233 36 30 37 30 14 37
-39 10 -91 6 -128 -10z"/>
<path d="M7599 3827 c-119 -63 -144 -216 -52 -318 84 -93 237 -82 310 24 37
54 44 146 15 203 -53 104 -173 144 -273 91z m151 -72 c60 -31 80 -127 38 -180
-78 -100 -235 -33 -215 92 14 82 103 126 177 88z"/>
<path d="M4456 3428 c-3 -46 -9 -115 -12 -155 l-6 -72 36 -6 c104 -20 196 53
196 155 0 91 -70 160 -162 160 l-45 0 -7 -82z m114 -72 c0 -19 -4 -38 -10 -41
-6 -4 -10 10 -10 34 0 23 5 41 10 41 6 0 10 -15 10 -34z"/>
<path d="M11175 3111 l-30 -7 25 -7 c33 -9 160 -8 185 2 41 16 -115 26 -180
12z"/>
<path d="M10074 7660 c-54 -22 -69 -91 -30 -136 48 -57 146 -22 146 52 0 60
-64 106 -116 84z"/>
<path d="M10639 5782 c-60 -31 -105 -87 -119 -148 -5 -21 -10 -152 -10 -290 0
-294 6 -326 72 -391 63 -61 105 -73 269 -73 l137 0 52 -90 c66 -115 101 -143
184 -148 93 -5 127 19 199 141 l59 97 135 0 c75 0 153 5 174 12 51 15 114 69
142 122 21 40 22 51 22 326 0 317 -3 334 -62 395 -75 77 -52 75 -659 75 l-542
0 -53 -28z m125 -86 c-84 -38 -85 -47 -82 -365 l3 -270 29 -30 c17 -17 45 -34
64 -37 29 -6 32 -8 17 -16 -39 -23 -135 15 -165 65 -18 30 -20 52 -20 300 0
282 2 299 48 340 25 23 66 35 117 36 l40 0 -51 -23z m588 -95 c14 -16 36 -32
49 -36 92 -28 145 -140 106 -227 -12 -27 -162 -186 -201 -214 -11 -8 -28 -14
-38 -14 -10 0 22 37 84 98 55 53 106 109 114 124 8 15 14 49 14 75 0 62 -34
113 -93 142 -51 25 -91 27 -130 6 -24 -12 -32 -12 -64 2 -99 41 -213 -46 -213
-163 l0 -39 -47 3 c-75 6 -83 18 -83 134 0 145 -13 138 259 138 l219 0 24 -29z
m-142 -106 c16 -15 20 -14 51 4 19 12 45 21 59 21 39 0 90 -37 106 -76 25 -61
12 -89 -90 -186 -50 -49 -98 -88 -106 -88 -22 0 -177 159 -190 195 -6 16 -9
44 -6 61 6 30 46 75 76 87 24 10 81 -1 100 -18z m-65 -566 c17 -30 42 -74 55
-99 13 -25 33 -55 44 -67 20 -24 16 -28 -29 -23 -31 3 -49 24 -103 118 -80
140 -77 129 -35 127 32 -2 40 -8 68 -56z"/>
<path d="M4078 4899 c-25 -14 -24 -65 1 -79 11 -5 54 -10 95 -10 63 0 80 4 96
20 11 11 20 25 20 30 0 6 -9 19 -20 30 -17 17 -33 20 -97 20 -43 0 -86 -5 -95
-11z"/>
<path d="M4406 4894 c-9 -8 -16 -24 -16 -34 0 -44 23 -50 176 -50 81 0 154 5
165 10 12 7 19 21 19 40 0 19 -7 33 -19 40 -11 5 -84 10 -165 10 -118 0 -147
-3 -160 -16z"/>
<path d="M3611 4650 c-94 -5 -104 -7 -112 -26 -5 -14 -2 -29 7 -43 14 -19 24
-21 124 -21 105 0 110 1 125 24 12 19 14 30 6 44 -14 26 -28 28 -150 22z"/>
<path d="M3922 4638 c-18 -18 -14 -56 7 -68 12 -6 104 -10 228 -10 178 0 213
-3 243 -18 42 -20 49 -50 19 -78 -20 -18 -42 -19 -338 -24 -314 -5 -316 -5
-361 -30 -170 -95 -82 -280 134 -280 72 0 103 -14 126 -55 28 -51 90 -42 90
14 0 72 -79 131 -177 131 -115 1 -187 35 -164 78 6 11 18 23 28 28 10 5 160
11 333 14 301 5 317 6 357 27 120 65 122 195 3 256 l-54 27 -231 0 c-166 0
-234 -3 -243 -12z"/>
<path d="M2550 4438 c-11 -18 -20 -40 -20 -49 0 -22 -18 -35 -56 -43 -18 -4
-40 -16 -50 -27 -17 -18 -17 -21 -1 -36 9 -10 36 -24 59 -33 34 -12 43 -21 51
-50 10 -39 33 -70 54 -70 7 0 21 17 29 38 32 72 24 64 97 96 25 11 37 22 37
36 0 14 -12 25 -37 36 -73 32 -65 24 -97 97 -19 46 -40 47 -66 5z"/>
<path d="M2889 3611 c-80 -80 25 -201 114 -131 68 54 25 160 -64 160 -11 0
-34 -13 -50 -29z"/>
<path d="M13069 3351 c-64 -65 -20 -171 71 -171 33 0 48 6 71 29 64 65 20 171
-71 171 -33 0 -48 -6 -71 -29z"/>
</g>
</svg>
